<svg width="20" height="20" viewBox="0 0 20 20" fill="none" xmlns="http://www.w3.org/2000/svg">
<path d="M10.0007 11.6667C10.4427 11.6667 10.8666 11.4911 11.1792 11.1785C11.4917 10.866 11.6673 10.442 11.6673 10C11.6673 9.55798 11.4917 9.13406 11.1792 8.8215C10.8666 8.50894 10.4427 8.33334 10.0007 8.33334C9.55862 8.33334 9.1347 8.50894 8.82214 8.8215C8.50958 9.13406 8.33398 9.55798 8.33398 10C8.33398 10.442 8.50958 10.866 8.82214 11.1785C9.1347 11.4911 9.55862 11.6667 10.0007 11.6667Z" fill="#18191B"/>
<path d="M3.78657 4.30499C2.41734 5.83134 1.6613 7.81034 1.66407 9.86083C1.66276 11.0435 1.91378 12.2128 2.40036 13.2907C2.88694 14.3687 3.59789 15.3304 4.48574 16.1117M16.2107 4.30499C17.58 5.83134 18.336 7.81034 18.3332 9.86083C18.3345 11.0435 18.0835 12.2128 17.5969 13.2907C17.1104 14.3687 16.3994 15.3304 15.5116 16.1117M6.5199 6.90249C5.75345 7.75752 5.33046 8.86589 5.3324 10.0142C5.3324 11.4075 5.94407 12.6592 6.9124 13.5142M13.4791 6.90249C14.2458 7.75739 14.6691 8.86578 14.6674 10.0142C14.6681 10.6764 14.5275 11.3311 14.2551 11.9346C13.9826 12.5382 13.5845 13.0767 13.0874 13.5142" stroke="#18191B" stroke-width="1.25" stroke-linecap="round" stroke-linejoin="round"/>
</svg>
