<svg width="24" height="24" viewBox="0 0 24 24" fill="none" xmlns="http://www.w3.org/2000/svg">
<rect width="24" height="24" rx="7.2" fill="#FFA31A"/>
<path d="M12.941 11.4001H15.5288C15.8924 11.4001 16.1186 11.7357 15.9347 12.0023L11.9354 17.8016C11.6928 18.1534 11.059 18.0072 11.059 17.5994V12.5999H8.47122C8.10764 12.5999 7.88144 12.2643 8.06531 11.9977L12.0646 6.19837C12.3072 5.84657 12.941 5.99284 12.941 6.40063V11.4001Z" fill="white"/>
<path d="M15.5288 11.4001H12.941V12.4001H15.5288C15.5716 12.4001 15.6126 12.4047 15.6512 12.4134L15.9347 12.0023C16.1186 11.7357 15.8924 11.4001 15.5288 11.4001ZM8.34882 12.5866L12.0646 7.19837C12.3072 6.84657 12.941 6.99284 12.941 7.40063V6.40063C12.941 5.99284 12.3072 5.84657 12.0646 6.19837L8.06531 11.9977C7.90312 12.2329 8.06001 12.5218 8.34882 12.5866Z" fill="white"/>
</svg>
