<svg width="20" height="20" viewBox="0 0 20 20" fill="none" xmlns="http://www.w3.org/2000/svg">
<path d="M7.16602 9V15M11.166 9V15M1.16602 5H17.166M16.166 5L15.2993 17.1417C15.2635 17.6463 15.0378 18.1186 14.6676 18.4635C14.2974 18.8083 13.8103 19 13.3043 19H5.02768C4.52177 19 4.03465 18.8083 3.66446 18.4635C3.29427 18.1186 3.06852 17.6463 3.03268 17.1417L2.16602 5H16.166ZM12.166 5V2C12.166 1.73478 12.0607 1.48043 11.8731 1.29289C11.6856 1.10536 11.4312 1 11.166 1H7.16602C7.03469 1 6.90466 1.02587 6.78333 1.07612C6.66201 1.12638 6.55177 1.20003 6.45891 1.29289C6.36605 1.38575 6.29239 1.49599 6.24214 1.61732C6.19188 1.73864 6.16602 1.86868 6.16602 2V5H12.166Z" stroke="#18191B" stroke-width="1.5" stroke-linecap="round" stroke-linejoin="round"/>
</svg>
