<svg width="40" height="40" viewBox="0 0 40 40" fill="none" xmlns="http://www.w3.org/2000/svg">
<rect width="40" height="40" rx="10" fill="#467AFF" fill-opacity="0.1"/>
<path d="M20.0007 21.6667C20.4427 21.6667 20.8666 21.4911 21.1792 21.1785C21.4917 20.866 21.6673 20.442 21.6673 20C21.6673 19.558 21.4917 19.1341 21.1792 18.8215C20.8666 18.5089 20.4427 18.3333 20.0007 18.3333C19.5586 18.3333 19.1347 18.5089 18.8221 18.8215C18.5096 19.1341 18.334 19.558 18.334 20C18.334 20.442 18.5096 20.866 18.8221 21.1785C19.1347 21.4911 19.5586 21.6667 20.0007 21.6667Z" fill="#0098FD"/>
<path d="M13.7866 14.305C12.4173 15.8313 11.6613 17.8103 11.6641 19.8608C11.6628 21.0435 11.9138 22.2128 12.4004 23.2907C12.8869 24.3687 13.5979 25.3304 14.4857 26.1117M26.2107 14.305C27.58 15.8313 28.336 17.8103 28.3332 19.8608C28.3345 21.0435 28.0835 22.2128 27.5969 23.2907C27.1104 24.3687 26.3994 25.3304 25.5116 26.1117M16.5199 16.9025C15.7535 17.7575 15.3305 18.8659 15.3324 20.0142C15.3324 21.4075 15.9441 22.6592 16.9124 23.5142M23.4791 16.9025C24.2458 17.7574 24.6691 18.8658 24.6674 20.0142C24.6681 20.6764 24.5275 21.3311 24.2551 21.9346C23.9826 22.5382 23.5845 23.0767 23.0874 23.5142" stroke="#0098FD" stroke-width="1.25" stroke-linecap="round" stroke-linejoin="round"/>
</svg>
