<svg width="18" height="17" viewBox="0 0 18 17" fill="none" xmlns="http://www.w3.org/2000/svg">
<path d="M11.666 14.7188V13.3854C11.666 12.6782 11.3851 11.9999 10.8849 11.4998C10.3849 10.9997 9.70662 10.7188 8.99935 10.7188H4.33268C3.62544 10.7188 2.94716 10.9997 2.44706 11.4998C1.94697 11.9999 1.66602 12.6782 1.66602 13.3854V14.7188" stroke="#192033" stroke-width="1.5" stroke-linecap="round" stroke-linejoin="round"/>
<path d="M6.66667 8.05208C8.1394 8.05208 9.33333 6.85818 9.33333 5.38542C9.33333 3.91266 8.1394 2.71875 6.66667 2.71875C5.19391 2.71875 4 3.91266 4 5.38542C4 6.85818 5.19391 8.05208 6.66667 8.05208Z" stroke="#192033" stroke-width="1.5" stroke-linecap="round" stroke-linejoin="round"/>
<path d="M14.334 6.05206V10.0521" stroke="#192033" stroke-width="1.5" stroke-linecap="round" stroke-linejoin="round"/>
<path d="M16.334 8.05206H12.334" stroke="#192033" stroke-width="1.5" stroke-linecap="round" stroke-linejoin="round"/>
</svg>
