<svg width="40" height="40" viewBox="0 0 40 40" fill="none" xmlns="http://www.w3.org/2000/svg">
<rect width="40" height="40" rx="10" fill="#FFA31A" fill-opacity="0.1"/>
<path d="M20 10.8333C19.337 10.8333 18.7011 11.0967 18.2322 11.5656C17.7634 12.0344 17.5 12.6703 17.5 13.3333V20C17.5 20.663 17.7634 21.2989 18.2322 21.7678C18.7011 22.2366 19.337 22.5 20 22.5C20.663 22.5 21.2989 22.2366 21.7677 21.7678C22.2366 21.2989 22.5 20.663 22.5 20V13.3333C22.5 12.6703 22.2366 12.0344 21.7677 11.5656C21.2989 11.0967 20.663 10.8333 20 10.8333Z" stroke="#FFA31A" stroke-width="1.5" stroke-linecap="round" stroke-linejoin="round"/>
<path d="M25.8327 18.3333V20C25.8327 21.5471 25.2181 23.0308 24.1241 24.1248C23.0302 25.2188 21.5464 25.8333 19.9993 25.8333C18.4523 25.8333 16.9685 25.2188 15.8746 24.1248C14.7806 23.0308 14.166 21.5471 14.166 20V18.3333" stroke="#FFA31A" stroke-width="1.5" stroke-linecap="round" stroke-linejoin="round"/>
<path d="M20 25.8333V29.1667" stroke="#FFA31A" stroke-width="1.5" stroke-linecap="round" stroke-linejoin="round"/>
</svg>
