<svg width="310" height="63" viewBox="0 0 310 63" fill="none" xmlns="http://www.w3.org/2000/svg" class="sc-bNqKjI hEFMBB"><path d="M84.8529 1.44834L62.1158 57.2164C60.8138 60.4082 57.7094 62.4954 54.2605 62.4954H31.2823C27.838 62.4954 24.7358 60.4127 23.4315 57.2233L0.625551 1.45063C0.439558 0.995982 0.772509 0.5 1.2616 0.5H24.2765C24.8506 0.5 25.3649 0.855913 25.567 1.39323L42.8047 47.3634L59.9022 1.39782C60.102 0.858209 60.6187 0.5 61.1927 0.5H84.2145C84.7036 0.5 85.0366 0.995982 84.8529 1.44834ZM91.2249 0.5H154.419C154.8 0.5 155.108 0.807692 155.108 1.18886V16.3048C155.108 16.686 154.8 16.9937 154.419 16.9937H113.296C112.915 16.9937 112.607 17.3014 112.607 17.6825V22.5827C112.607 22.9638 112.915 23.2715 113.296 23.2715H153.484C153.866 23.2715 154.173 23.5792 154.173 23.9604V38.9592C154.173 39.3404 153.866 39.6481 153.484 39.6481H113.296C112.915 39.6481 112.607 39.9558 112.607 40.337V45.3152C112.607 45.6963 112.915 46.004 113.296 46.004H154.419C154.8 46.004 155.108 46.3117 155.108 46.6929V61.8088C155.108 62.19 154.8 62.4977 154.419 62.4977H91.2249C90.8437 62.4977 90.536 62.19 90.536 61.8088V1.18886C90.536 0.807692 90.8437 0.5 91.2249 0.5ZM162.809 0.5H226.003C226.384 0.5 226.692 0.807692 226.692 1.18886V16.3048C226.692 16.686 226.384 16.9937 226.003 16.9937H184.88C184.499 16.9937 184.192 17.3014 184.192 17.6825V22.5827C184.192 22.9638 184.499 23.2715 184.88 23.2715H225.069C225.45 23.2715 225.758 23.5792 225.758 23.9604V38.9592C225.758 39.3404 225.45 39.6481 225.069 39.6481H184.88C184.499 39.6481 184.192 39.9558 184.192 40.337V45.3152C184.192 45.6963 184.499 46.004 184.88 46.004H226.003C226.384 46.004 226.692 46.3117 226.692 46.6929V61.8088C226.692 62.19 226.384 62.4977 226.003 62.4977H162.809C162.428 62.4977 162.12 62.19 162.12 61.8088V1.18886C162.12 0.807692 162.428 0.5 162.809 0.5ZM233.702 1.18886C233.702 0.807692 234.01 0.5 234.391 0.5H277.686C287.163 0.5 294.805 2.95695 300.653 7.82951C306.502 12.7434 309.427 20.6194 309.427 31.4598C309.427 42.3002 306.502 50.1762 300.653 55.0901C294.805 60.0431 287.163 62.5 277.686 62.5H234.391C234.01 62.5 233.702 62.1923 233.702 61.8111V1.18886ZM272.616 45.8869C277.608 45.8869 281.312 44.7962 283.73 42.6125C286.148 40.4288 287.356 36.725 287.356 31.4598C287.356 26.1946 286.148 22.5689 283.73 20.3875C281.312 18.2038 277.608 17.1131 272.616 17.1131H256.46C256.079 17.1131 255.771 17.4208 255.771 17.802V45.2003C255.771 45.5815 256.079 45.8892 256.46 45.8892H272.616V45.8869Z" fill="#323232"></path></svg>