<svg width="6" height="6" viewBox="0 0 6 6" fill="none" xmlns="http://www.w3.org/2000/svg">
<path d="M5.88876 1.42377C5.85475 1.38817 5.81379 1.35994 5.76842 1.3408C5.72306 1.32166 5.67425 1.31204 5.62501 1.31252H0.375015C0.273515 1.31252 0.185515 1.34952 0.111265 1.42377C0.0756947 1.4578 0.0474729 1.49877 0.0283394 1.54413C0.00920596 1.58949 -0.000433613 1.63829 1.49665e-05 1.68752C1.49665e-05 1.78902 0.037015 1.87702 0.111265 1.95127L2.73626 4.57627C2.81051 4.65052 2.89852 4.68752 3.00002 4.68752C3.10152 4.68752 3.18952 4.65052 3.26377 4.57627L5.88876 1.95127C5.96276 1.87702 6.00001 1.78902 6.00001 1.68752C6.00001 1.58602 5.96276 1.49802 5.88876 1.42377Z" fill="#5C5E65"/>
</svg>
