<svg width="20" height="20" viewBox="0 0 20 20" fill="none" xmlns="http://www.w3.org/2000/svg">
<path d="M4.90806 19.1666C3.82754 19.1666 2.79129 18.7375 2.02725 17.9733C1.26322 17.2094 0.833984 16.1731 0.833984 15.0926V2.87035C0.833984 2.3301 1.04859 1.81196 1.43063 1.42995C1.81263 1.04792 2.33077 0.833313 2.87102 0.833313H6.94509C7.48535 0.833313 8.00343 1.04792 8.38548 1.42995C8.76757 1.81196 8.98215 2.3301 8.98215 2.87035V15.0926C8.98215 16.1731 8.5529 17.2094 7.78887 17.9733M4.90806 19.1666C5.98858 19.1666 7.02483 18.7375 7.78887 17.9733M4.90806 19.1666H17.1303C17.6705 19.1666 18.1886 18.9521 18.5706 18.57C18.9527 18.188 19.1673 17.6698 19.1673 17.1296V13.0556C19.1673 12.5153 18.9527 11.9972 18.5706 11.6151C18.1886 11.2331 17.6705 11.0185 17.1303 11.0185H14.7439M7.78887 17.9733L16.4316 9.33081C16.8134 8.94873 17.028 8.43073 17.028 7.89063C17.028 7.35048 16.8134 6.83245 16.4316 6.45045L13.5501 3.56905C13.1681 3.18717 12.6502 2.97264 12.11 2.97264C11.5699 2.97264 11.0519 3.18717 10.6698 3.56905L8.98215 5.25674V11.6151M4.90806 15.0926H4.91824" stroke="#18191B" stroke-width="1.5" stroke-linecap="round" stroke-linejoin="round"/>
</svg>
