<svg width="24" height="24" viewBox="0 0 24 24" fill="none" xmlns="http://www.w3.org/2000/svg">
<path d="M9 9.12501C9 9.12501 9.045 8.09375 10.0481 7.26688C10.6437 6.77594 11.3591 6.63375 12 6.625C12.5853 6.61781 13.1084 6.71688 13.4213 6.86938C13.9559 7.13125 15 7.76875 15 9.12501C15 10.5522 14.0881 11.1991 13.0516 11.9119C12.015 12.6247 11.75 13.3238 11.75 14.125M11.7031 17.5001V17.2844M23 12C23 18.0751 18.0751 23 12 23C5.92487 23 1 18.0751 1 12C1 5.92487 5.92487 1 12 1C18.0751 1 23 5.92487 23 12Z" stroke="#192033" stroke-width="2" stroke-miterlimit="10" stroke-linecap="round"/>
</svg>
