<svg width="32" height="33" viewBox="0 0 32 33" fill="none" xmlns="http://www.w3.org/2000/svg">
<path d="M12.228 27.8147V28.8147C12.4932 28.8147 12.7476 28.7093 12.9351 28.5218C13.1226 28.3342 13.228 28.0799 13.228 27.8147H12.228ZM27.3147 12.7267V13.7267C27.5799 13.7267 27.8342 13.6213 28.0218 13.4338C28.2093 13.2462 28.3147 12.9919 28.3147 12.7267H27.3147ZM18.4 22.7C18.1348 22.7 17.8804 22.8054 17.6929 22.9929C17.5054 23.1804 17.4 23.4348 17.4 23.7C17.4 23.9652 17.5054 24.2196 17.6929 24.4071C17.8804 24.5946 18.1348 24.7 18.4 24.7V22.7ZM28 24.7C28.2652 24.7 28.5196 24.5946 28.7071 24.4071C28.8946 24.2196 29 23.9652 29 23.7C29 23.4348 28.8946 23.1804 28.7071 22.9929C28.5196 22.8054 28.2652 22.7 28 22.7V24.7ZM24.2 18.9C24.2 18.6348 24.0946 18.3804 23.9071 18.1929C23.7196 18.0054 23.4652 17.9 23.2 17.9C22.9348 17.9 22.6804 18.0054 22.4929 18.1929C22.3054 18.3804 22.2 18.6348 22.2 18.9H24.2ZM22.2 28.5C22.2 28.7652 22.3054 29.0196 22.4929 29.2071C22.6804 29.3946 22.9348 29.5 23.2 29.5C23.4652 29.5 23.7196 29.3946 23.9071 29.2071C24.0946 29.0196 24.2 28.7652 24.2 28.5H22.2ZM8.11467 5.5H23.2V3.5H8.11467V5.5ZM5 23.7V8.61467H3V23.7H5ZM12.228 26.8147H8.11467V28.8147H12.228V26.8147ZM13.228 27.8147V12.7267H11.228V27.8133L13.228 27.8147ZM12.228 13.7267H27.3147V11.7267H12.2267L12.228 13.7267ZM26.3147 8.61333V12.7267H28.3147V8.61467L26.3147 8.61333ZM3 23.7C3 25.0565 3.53887 26.3574 4.49805 27.3166C5.45724 28.2758 6.75817 28.8147 8.11467 28.8147V26.8147C7.28861 26.8147 6.49638 26.4865 5.91226 25.9024C5.32815 25.3183 5 24.5261 5 23.7H3ZM23.2 5.5C24.0261 5.5 24.8183 5.82815 25.4024 6.41226C25.9865 6.99638 26.3147 7.78727 26.3147 8.61333L28.3147 8.61467C28.3147 7.25817 27.7758 5.95724 26.8166 4.99805C25.8574 4.03886 24.5565 3.5 23.2 3.5V5.5ZM8.11467 3.5C6.75817 3.5 5.45724 4.03886 4.49805 4.99805C3.53887 5.95724 3 7.25817 3 8.61467H5C5 7.78861 5.32815 6.99638 5.91226 6.41226C6.49638 5.82815 7.28861 5.5 8.11467 5.5V3.5ZM4 13.728L12.228 13.7267V11.728H4V13.728ZM18.4 24.7H23.2V22.7H18.4V24.7ZM23.2 24.7H28V22.7H23.2V24.7ZM22.2 18.9V23.7H24.2V18.9H22.2ZM22.2 23.7V28.5H24.2V23.7H22.2Z" fill="#5C5E65"/>
</svg>
