<svg width="40" height="40" viewBox="0 0 40 40" fill="none" xmlns="http://www.w3.org/2000/svg">
<rect width="40" height="40" rx="10" fill="#FF6A70" fill-opacity="0.1"/>
<path d="M24.4043 17.8692L28.3043 15.8967C28.395 15.8509 28.4959 15.8293 28.5974 15.8339C28.6988 15.8386 28.7974 15.8694 28.8835 15.9233C29.0593 16.0333 29.1668 16.2267 29.166 16.4358V23.6575C29.1666 23.7519 29.1452 23.8453 29.1035 23.93C29.0691 24.0006 29.0211 24.0636 28.9622 24.1154C28.9033 24.1673 28.8346 24.2069 28.7602 24.2319C28.6859 24.257 28.6073 24.267 28.529 24.2613C28.4507 24.2557 28.3743 24.2346 28.3043 24.1992L24.4043 22.2242" stroke="#FF646A" stroke-width="1.5" stroke-linejoin="round"/>
<path d="M21.666 12.9167H13.3327C11.7219 12.9167 10.416 14.2225 10.416 15.8333V24.1667C10.416 25.7775 11.7219 27.0833 13.3327 27.0833H21.666C23.2768 27.0833 24.5827 25.7775 24.5827 24.1667V15.8333C24.5827 14.2225 23.2768 12.9167 21.666 12.9167Z" stroke="#FF646A" stroke-width="1.5"/>
</svg>
