<svg width="40" height="40" viewBox="0 0 40 40" fill="none" xmlns="http://www.w3.org/2000/svg">
<rect width="40" height="40" rx="10" fill="#9D45FF" fill-opacity="0.1"/>
<path d="M15 17.5C16.3807 17.5 17.5 16.3807 17.5 15C17.5 13.6193 16.3807 12.5 15 12.5C13.6193 12.5 12.5 13.6193 12.5 15C12.5 16.3807 13.6193 17.5 15 17.5Z" stroke="#9D45FF" stroke-width="1.5" stroke-linecap="round" stroke-linejoin="round"/>
<path d="M15 27.5C16.3807 27.5 17.5 26.3807 17.5 25C17.5 23.6192 16.3807 22.5 15 22.5C13.6193 22.5 12.5 23.6192 12.5 25C12.5 26.3807 13.6193 27.5 15 27.5Z" stroke="#9D45FF" stroke-width="1.5" stroke-linecap="round" stroke-linejoin="round"/>
<path d="M26.6676 13.3333L16.7676 23.2333" stroke="#9D45FF" stroke-width="1.5" stroke-linecap="round" stroke-linejoin="round"/>
<path d="M22.0586 22.0667L26.6669 26.6667" stroke="#9D45FF" stroke-width="1.5" stroke-linecap="round" stroke-linejoin="round"/>
<path d="M16.7676 16.7667L20.0009 20" stroke="#9D45FF" stroke-width="1.5" stroke-linecap="round" stroke-linejoin="round"/>
</svg>
