<svg width="119" height="22" viewBox="0 0 119 22" fill="none" xmlns="http://www.w3.org/2000/svg">
<g clip-path="url(#clip0_1_6)">
<path d="M13.9053 20.8455H8.31365L0 0.467651H6.33137L11.1243 12.6335L15.8876 0.467651H22.219L13.9053 20.8455Z" fill="#192033"/>
<path d="M39.4626 20.8455H23.6934V0.467651H39.3443V5.39484H29.3739V8.4059H38.5455V12.8769H29.3739V15.9183H39.4626V20.8455Z" fill="#192033"/>
<path d="M57.7224 20.8455H41.9531V0.467651H57.604V5.39484H47.6336V8.4059H56.8052V12.8769H47.6336V15.9183H57.7224V20.8455Z" fill="#192033"/>
<path d="M68.5857 0.467651C71.8202 0.467651 74.4339 1.40037 76.426 3.26581C78.3981 5.15152 79.3846 7.61511 79.3846 10.6566C79.3846 13.698 78.3981 16.1515 76.426 18.0169C74.4339 19.9027 71.8202 20.8455 68.5857 20.8455H60.2129V0.467651H68.5857ZM68.1715 15.9183C69.8086 15.9183 71.1303 15.4317 72.136 14.4584C73.1416 13.4851 73.6447 12.2179 73.6447 10.6566C73.6447 9.09528 73.1416 7.82801 72.136 6.85474C71.1303 5.88147 69.8086 5.39484 68.1715 5.39484H65.8934V15.9183H68.1715Z" fill="#192033"/>
<path d="M84.0186 14.7322C84.9057 14.7322 85.6459 15.0464 86.2371 15.675C86.8091 16.3036 87.0951 17.0437 87.0951 17.8953C87.0951 18.7875 86.8091 19.5275 86.2371 20.1156C85.6459 20.7036 84.9057 20.9976 84.0186 20.9976C83.1308 20.9976 82.4013 20.7036 81.8293 20.1156C81.2374 19.5275 80.9415 18.7875 80.9415 17.8953C80.9415 17.0437 81.2374 16.3036 81.8293 15.675C82.4013 15.0464 83.1308 14.7322 84.0186 14.7322Z" fill="#192033"/>
<path d="M89.1914 20.8455V0.467651H94.8724V20.8455H89.1914Z" fill="#192033"/>
<path d="M107.835 0.0114746C110.833 0.0114746 113.368 1.03544 115.438 3.08336C117.49 5.15156 118.516 7.67597 118.516 10.6566C118.516 13.6373 117.49 16.1516 115.438 18.1995C113.368 20.2677 110.833 21.3018 107.835 21.3018C104.837 21.3018 102.312 20.2677 100.261 18.1995C98.1904 16.1516 97.1543 13.6373 97.1543 10.6566C97.1543 7.67597 98.1904 5.15156 100.261 3.08336C102.312 1.03544 104.837 0.0114746 107.835 0.0114746ZM107.835 16.04C109.255 16.04 110.439 15.523 111.385 14.4889C112.312 13.475 112.776 12.1976 112.776 10.6566C112.776 9.13592 112.312 7.8585 111.385 6.82437C110.439 5.79027 109.255 5.27322 107.835 5.27322C106.415 5.27322 105.241 5.79027 104.314 6.82437C103.368 7.8585 102.894 9.13592 102.894 10.6566C102.894 12.1976 103.368 13.475 104.314 14.4889C105.241 15.523 106.415 16.04 107.835 16.04Z" fill="#192033"/>
</g>
<defs>
<clipPath id="clip0_1_6">
<rect width="118.516" height="22" fill="white"/>
</clipPath>
</defs>
</svg>
