<svg width="20" height="20" viewBox="0 0 20 20" fill="none" xmlns="http://www.w3.org/2000/svg">
<path d="M18.3327 15.8333C18.3327 16.2753 18.1571 16.6992 17.8445 17.0118C17.5319 17.3244 17.108 17.5 16.666 17.5H3.33268C2.89066 17.5 2.46673 17.3244 2.15417 17.0118C1.84161 16.6992 1.66602 16.2753 1.66602 15.8333V4.16667C1.66602 3.72464 1.84161 3.30072 2.15417 2.98816C2.46673 2.67559 2.89066 2.5 3.33268 2.5H6.60737C7.16463 2.5 7.68502 2.7785 7.99412 3.24217L8.9186 4.62892C9.07318 4.86075 9.33335 5 9.61202 5H16.666C17.108 5 17.5319 5.17559 17.8445 5.48816C18.1571 5.80072 18.3327 6.22464 18.3327 6.66667V15.8333Z" stroke="#18191B" stroke-width="1.5" stroke-linecap="round" stroke-linejoin="round"/>
</svg>
